<svg id="visual" viewBox="0 0 540 960" width="540" height="960" xmlns="http://www.w3.org/2000/svg" xmlns:xlink="http://www.w3.org/1999/xlink" version="1.1"><g stroke-width="1" stroke-linejoin="bevel"><path d="M286 505L220 547L285 550Z" fill="#15384f" stroke="#15384f"></path><path d="M220 547L233 593L285 550Z" fill="#205a7a" stroke="#205a7a"></path><path d="M286 505L231 467L220 547Z" fill="#277297" stroke="#277297"></path><path d="M220 547L143 550L213 571Z" fill="#081a28" stroke="#081a28"></path><path d="M213 571L233 593L220 547Z" fill="#081a28" stroke="#081a28"></path><path d="M267 621L305 602L285 550Z" fill="#246688" stroke="#246688"></path><path d="M285 550L339 471L286 505Z" fill="#081a28" stroke="#081a28"></path><path d="M286 505L240 434L231 467Z" fill="#297ea6" stroke="#297ea6"></path><path d="M233 593L267 621L285 550Z" fill="#00101c" stroke="#00101c"></path><path d="M240 434L189 448L231 467Z" fill="#246688" stroke="#246688"></path><path d="M231 467L189 448L220 547Z" fill="#297ea6" stroke="#297ea6"></path><path d="M383 567L339 471L285 550Z" fill="#081a28" stroke="#081a28"></path><path d="M286 505L339 441L240 434Z" fill="#297ea6" stroke="#297ea6"></path><path d="M189 448L143 550L220 547Z" fill="#112e42" stroke="#112e42"></path><path d="M213 571L163 597L233 593Z" fill="#205a7a" stroke="#205a7a"></path><path d="M233 593L194 694L267 621Z" fill="#00101c" stroke="#00101c"></path><path d="M143 550L163 597L213 571Z" fill="#205a7a" stroke="#205a7a"></path><path d="M267 621L329 619L305 602Z" fill="#277297" stroke="#277297"></path><path d="M305 602L383 567L285 550Z" fill="#297ea6" stroke="#297ea6"></path><path d="M339 471L339 441L286 505Z" fill="#277297" stroke="#277297"></path><path d="M242 370L214 401L240 434Z" fill="#19435d" stroke="#19435d"></path><path d="M240 434L214 401L189 448Z" fill="#19435d" stroke="#19435d"></path><path d="M329 619L383 567L305 602Z" fill="#0c2435" stroke="#0c2435"></path><path d="M339 471L387 490L339 441Z" fill="#0c2435" stroke="#0c2435"></path><path d="M383 567L387 490L339 471Z" fill="#15384f" stroke="#15384f"></path><path d="M339 441L274 384L240 434Z" fill="#00101c" stroke="#00101c"></path><path d="M73 579L140 630L163 597Z" fill="#112e42" stroke="#112e42"></path><path d="M163 597L194 694L233 593Z" fill="#081a28" stroke="#081a28"></path><path d="M267 621L285 693L329 619Z" fill="#246688" stroke="#246688"></path><path d="M274 384L242 370L240 434Z" fill="#246688" stroke="#246688"></path><path d="M80 628L139 642L140 630Z" fill="#00101c" stroke="#00101c"></path><path d="M140 630L139 642L163 597Z" fill="#15384f" stroke="#15384f"></path><path d="M242 370L186 372L214 401Z" fill="#1d4e6b" stroke="#1d4e6b"></path><path d="M214 401L186 372L189 448Z" fill="#081a28" stroke="#081a28"></path><path d="M189 448L90 467L143 550Z" fill="#246688" stroke="#246688"></path><path d="M220 702L285 693L267 621Z" fill="#277297" stroke="#277297"></path><path d="M329 619L388 663L383 567Z" fill="#205a7a" stroke="#205a7a"></path><path d="M107 420L90 467L189 448Z" fill="#277297" stroke="#277297"></path><path d="M143 550L73 579L163 597Z" fill="#0c2435" stroke="#0c2435"></path><path d="M387 490L381 408L339 441Z" fill="#1d4e6b" stroke="#1d4e6b"></path><path d="M339 441L334 334L274 384Z" fill="#15384f" stroke="#15384f"></path><path d="M274 384L246 329L242 370Z" fill="#277297" stroke="#277297"></path><path d="M139 642L194 694L163 597Z" fill="#297ea6" stroke="#297ea6"></path><path d="M194 694L220 702L267 621Z" fill="#1d4e6b" stroke="#1d4e6b"></path><path d="M130 385L107 420L189 448Z" fill="#0c2435" stroke="#0c2435"></path><path d="M220 702L277 709L285 693Z" fill="#15384f" stroke="#15384f"></path><path d="M285 693L388 663L329 619Z" fill="#112e42" stroke="#112e42"></path><path d="M90 467L73 579L143 550Z" fill="#277297" stroke="#277297"></path><path d="M186 372L130 385L189 448Z" fill="#246688" stroke="#246688"></path><path d="M45 427L86 441L107 420Z" fill="#0c2435" stroke="#0c2435"></path><path d="M107 420L86 441L90 467Z" fill="#277297" stroke="#277297"></path><path d="M0 555L20 599L73 579Z" fill="#246688" stroke="#246688"></path><path d="M391 678L388 663L285 693Z" fill="#297ea6" stroke="#297ea6"></path><path d="M383 567L456 535L387 490Z" fill="#081a28" stroke="#081a28"></path><path d="M285 311L246 329L274 384Z" fill="#277297" stroke="#277297"></path><path d="M242 370L187 325L186 372Z" fill="#205a7a" stroke="#205a7a"></path><path d="M186 372L187 325L130 385Z" fill="#297ea6" stroke="#297ea6"></path><path d="M194 694L211 774L220 702Z" fill="#277297" stroke="#277297"></path><path d="M220 702L272 744L277 709Z" fill="#19435d" stroke="#19435d"></path><path d="M139 642L158 703L194 694Z" fill="#081a28" stroke="#081a28"></path><path d="M147 726L158 703L45 711Z" fill="#205a7a" stroke="#205a7a"></path><path d="M73 579L80 628L140 630Z" fill="#15384f" stroke="#15384f"></path><path d="M388 663L430 624L383 567Z" fill="#205a7a" stroke="#205a7a"></path><path d="M504 415L442 356L381 408Z" fill="#00101c" stroke="#00101c"></path><path d="M446 594L456 535L383 567Z" fill="#00101c" stroke="#00101c"></path><path d="M430 624L446 594L383 567Z" fill="#081a28" stroke="#081a28"></path><path d="M388 663L449 683L430 624Z" fill="#1d4e6b" stroke="#1d4e6b"></path><path d="M364 736L391 678L285 693Z" fill="#19435d" stroke="#19435d"></path><path d="M381 408L334 334L339 441Z" fill="#15384f" stroke="#15384f"></path><path d="M210 270L187 325L246 329Z" fill="#00101c" stroke="#00101c"></path><path d="M246 329L187 325L242 370Z" fill="#246688" stroke="#246688"></path><path d="M350 326L337 327L334 334Z" fill="#00101c" stroke="#00101c"></path><path d="M334 334L285 311L274 384Z" fill="#00101c" stroke="#00101c"></path><path d="M350 326L334 334L381 408Z" fill="#19435d" stroke="#19435d"></path><path d="M266 755L272 744L220 702Z" fill="#1d4e6b" stroke="#1d4e6b"></path><path d="M277 709L364 736L285 693Z" fill="#277297" stroke="#277297"></path><path d="M337 327L285 311L334 334Z" fill="#00101c" stroke="#00101c"></path><path d="M442 356L350 326L381 408Z" fill="#205a7a" stroke="#205a7a"></path><path d="M337 327L334 268L285 311Z" fill="#0c2435" stroke="#0c2435"></path><path d="M45 711L158 703L139 642Z" fill="#081a28" stroke="#081a28"></path><path d="M158 703L147 726L194 694Z" fill="#205a7a" stroke="#205a7a"></path><path d="M211 774L266 755L220 702Z" fill="#0c2435" stroke="#0c2435"></path><path d="M272 744L364 736L277 709Z" fill="#081a28" stroke="#081a28"></path><path d="M73 325L107 420L130 385Z" fill="#19435d" stroke="#19435d"></path><path d="M73 325L45 427L107 420Z" fill="#19435d" stroke="#19435d"></path><path d="M86 441L45 427L90 467Z" fill="#277297" stroke="#277297"></path><path d="M73 579L20 599L80 628Z" fill="#277297" stroke="#277297"></path><path d="M333 825L364 736L272 744Z" fill="#112e42" stroke="#112e42"></path><path d="M391 678L449 683L388 663Z" fill="#246688" stroke="#246688"></path><path d="M0 555L73 579L90 467Z" fill="#205a7a" stroke="#205a7a"></path><path d="M62 764L140 758L147 726Z" fill="#15384f" stroke="#15384f"></path><path d="M364 736L449 683L391 678Z" fill="#277297" stroke="#277297"></path><path d="M430 624L487 649L446 594Z" fill="#15384f" stroke="#15384f"></path><path d="M446 594L510 576L456 535Z" fill="#15384f" stroke="#15384f"></path><path d="M147 726L211 774L194 694Z" fill="#205a7a" stroke="#205a7a"></path><path d="M333 825L383 781L364 736Z" fill="#246688" stroke="#246688"></path><path d="M504 415L381 408L387 490Z" fill="#112e42" stroke="#112e42"></path><path d="M0 479L0 555L90 467Z" fill="#1d4e6b" stroke="#1d4e6b"></path><path d="M45 711L139 642L80 628Z" fill="#00101c" stroke="#00101c"></path><path d="M147 726L140 758L211 774Z" fill="#112e42" stroke="#112e42"></path><path d="M45 427L0 479L90 467Z" fill="#205a7a" stroke="#205a7a"></path><path d="M285 311L210 270L246 329Z" fill="#19435d" stroke="#19435d"></path><path d="M97 284L73 325L130 385Z" fill="#1d4e6b" stroke="#1d4e6b"></path><path d="M283 226L210 270L285 311Z" fill="#277297" stroke="#277297"></path><path d="M334 268L337 327L350 326Z" fill="#081a28" stroke="#081a28"></path><path d="M487 649L510 576L446 594Z" fill="#246688" stroke="#246688"></path><path d="M456 535L515 464L387 490Z" fill="#15384f" stroke="#15384f"></path><path d="M449 683L487 649L430 624Z" fill="#1d4e6b" stroke="#1d4e6b"></path><path d="M45 427L0 452L0 479Z" fill="#277297" stroke="#277297"></path><path d="M0 347L0 452L45 427Z" fill="#0c2435" stroke="#0c2435"></path><path d="M0 555L0 602L20 599Z" fill="#15384f" stroke="#15384f"></path><path d="M0 671L45 711L80 628Z" fill="#246688" stroke="#246688"></path><path d="M540 512L515 464L456 535Z" fill="#0c2435" stroke="#0c2435"></path><path d="M97 284L130 385L187 325Z" fill="#081a28" stroke="#081a28"></path><path d="M434 310L334 268L350 326Z" fill="#205a7a" stroke="#205a7a"></path><path d="M484 320L447 333L442 356Z" fill="#205a7a" stroke="#205a7a"></path><path d="M442 356L434 310L350 326Z" fill="#277297" stroke="#277297"></path><path d="M515 464L504 415L387 490Z" fill="#297ea6" stroke="#297ea6"></path><path d="M0 671L80 628L20 599Z" fill="#205a7a" stroke="#205a7a"></path><path d="M484 320L434 310L447 333Z" fill="#15384f" stroke="#15384f"></path><path d="M447 333L434 310L442 356Z" fill="#19435d" stroke="#19435d"></path><path d="M333 825L272 744L266 755Z" fill="#00101c" stroke="#00101c"></path><path d="M364 736L393 783L449 683Z" fill="#277297" stroke="#277297"></path><path d="M449 683L503 684L487 649Z" fill="#277297" stroke="#277297"></path><path d="M510 576L540 512L456 535Z" fill="#1d4e6b" stroke="#1d4e6b"></path><path d="M515 464L540 453L504 415Z" fill="#277297" stroke="#277297"></path><path d="M540 611L540 512L510 576Z" fill="#081a28" stroke="#081a28"></path><path d="M147 228L97 284L187 325Z" fill="#081a28" stroke="#081a28"></path><path d="M0 602L0 671L20 599Z" fill="#277297" stroke="#277297"></path><path d="M349 831L393 783L383 781Z" fill="#246688" stroke="#246688"></path><path d="M383 781L393 783L364 736Z" fill="#246688" stroke="#246688"></path><path d="M464 804L503 684L449 683Z" fill="#19435d" stroke="#19435d"></path><path d="M487 649L540 611L510 576Z" fill="#277297" stroke="#277297"></path><path d="M540 512L540 453L515 464Z" fill="#15384f" stroke="#15384f"></path><path d="M504 415L484 320L442 356Z" fill="#277297" stroke="#277297"></path><path d="M540 655L540 611L487 649Z" fill="#00101c" stroke="#00101c"></path><path d="M331 163L283 226L334 268Z" fill="#1d4e6b" stroke="#1d4e6b"></path><path d="M334 268L283 226L285 311Z" fill="#00101c" stroke="#00101c"></path><path d="M94 214L67 272L97 284Z" fill="#205a7a" stroke="#205a7a"></path><path d="M0 747L62 764L45 711Z" fill="#00101c" stroke="#00101c"></path><path d="M45 711L62 764L147 726Z" fill="#081a28" stroke="#081a28"></path><path d="M140 758L205 828L211 774Z" fill="#081a28" stroke="#081a28"></path><path d="M158 863L205 828L140 758Z" fill="#1d4e6b" stroke="#1d4e6b"></path><path d="M211 774L205 828L266 755Z" fill="#112e42" stroke="#112e42"></path><path d="M540 453L540 417L504 415Z" fill="#19435d" stroke="#19435d"></path><path d="M225 865L333 825L266 755Z" fill="#081a28" stroke="#081a28"></path><path d="M540 354L484 320L504 415Z" fill="#15384f" stroke="#15384f"></path><path d="M434 310L442 249L334 268Z" fill="#15384f" stroke="#15384f"></path><path d="M0 312L0 347L73 325Z" fill="#00101c" stroke="#00101c"></path><path d="M73 325L0 347L45 427Z" fill="#0c2435" stroke="#0c2435"></path><path d="M540 711L540 655L503 684Z" fill="#277297" stroke="#277297"></path><path d="M503 684L540 655L487 649Z" fill="#081a28" stroke="#081a28"></path><path d="M147 228L187 325L210 270Z" fill="#246688" stroke="#246688"></path><path d="M97 284L67 272L73 325Z" fill="#081a28" stroke="#081a28"></path><path d="M147 207L147 228L236 185Z" fill="#15384f" stroke="#15384f"></path><path d="M333 825L349 831L383 781Z" fill="#246688" stroke="#246688"></path><path d="M393 783L419 801L449 683Z" fill="#277297" stroke="#277297"></path><path d="M362 881L349 831L333 825Z" fill="#0c2435" stroke="#0c2435"></path><path d="M349 831L419 801L393 783Z" fill="#0c2435" stroke="#0c2435"></path><path d="M0 671L0 727L45 711Z" fill="#1d4e6b" stroke="#1d4e6b"></path><path d="M331 163L253 202L283 226Z" fill="#112e42" stroke="#112e42"></path><path d="M283 226L253 202L210 270Z" fill="#1d4e6b" stroke="#1d4e6b"></path><path d="M67 272L0 312L73 325Z" fill="#277297" stroke="#277297"></path><path d="M540 417L540 354L504 415Z" fill="#19435d" stroke="#19435d"></path><path d="M485 232L442 249L484 320Z" fill="#15384f" stroke="#15384f"></path><path d="M484 320L442 249L434 310Z" fill="#0c2435" stroke="#0c2435"></path><path d="M0 727L0 747L45 711Z" fill="#112e42" stroke="#112e42"></path><path d="M218 879L225 865L205 828Z" fill="#297ea6" stroke="#297ea6"></path><path d="M94 214L48 243L67 272Z" fill="#1d4e6b" stroke="#1d4e6b"></path><path d="M67 272L0 274L0 312Z" fill="#1d4e6b" stroke="#1d4e6b"></path><path d="M236 185L147 228L210 270Z" fill="#205a7a" stroke="#205a7a"></path><path d="M158 863L140 758L80 868Z" fill="#112e42" stroke="#112e42"></path><path d="M205 828L225 865L266 755Z" fill="#00101c" stroke="#00101c"></path><path d="M464 804L540 711L503 684Z" fill="#246688" stroke="#246688"></path><path d="M305 136L236 185L253 202Z" fill="#277297" stroke="#277297"></path><path d="M253 202L236 185L210 270Z" fill="#277297" stroke="#277297"></path><path d="M419 801L464 804L449 683Z" fill="#297ea6" stroke="#297ea6"></path><path d="M440 879L464 804L419 801Z" fill="#297ea6" stroke="#297ea6"></path><path d="M362 881L419 801L349 831Z" fill="#297ea6" stroke="#297ea6"></path><path d="M80 868L140 758L62 764Z" fill="#00101c" stroke="#00101c"></path><path d="M94 214L97 284L147 228Z" fill="#081a28" stroke="#081a28"></path><path d="M60 152L94 214L101 120Z" fill="#15384f" stroke="#15384f"></path><path d="M147 207L94 214L147 228Z" fill="#277297" stroke="#277297"></path><path d="M158 863L218 879L205 828Z" fill="#0c2435" stroke="#0c2435"></path><path d="M330 910L362 881L333 825Z" fill="#0c2435" stroke="#0c2435"></path><path d="M48 243L0 274L67 272Z" fill="#1d4e6b" stroke="#1d4e6b"></path><path d="M540 354L540 312L484 320Z" fill="#297ea6" stroke="#297ea6"></path><path d="M330 910L333 825L225 865Z" fill="#081a28" stroke="#081a28"></path><path d="M447 197L334 268L442 249Z" fill="#15384f" stroke="#15384f"></path><path d="M447 197L331 163L334 268Z" fill="#246688" stroke="#246688"></path><path d="M236 185L193 140L147 207Z" fill="#277297" stroke="#277297"></path><path d="M540 312L485 232L484 320Z" fill="#1d4e6b" stroke="#1d4e6b"></path><path d="M485 232L447 197L442 249Z" fill="#297ea6" stroke="#297ea6"></path><path d="M0 855L80 868L62 764Z" fill="#297ea6" stroke="#297ea6"></path><path d="M158 863L204 919L218 879Z" fill="#00101c" stroke="#00101c"></path><path d="M305 136L228 144L236 185Z" fill="#205a7a" stroke="#205a7a"></path><path d="M540 806L540 792L464 804Z" fill="#081a28" stroke="#081a28"></path><path d="M464 804L540 792L540 711Z" fill="#081a28" stroke="#081a28"></path><path d="M218 879L330 910L225 865Z" fill="#246688" stroke="#246688"></path><path d="M362 881L440 879L419 801Z" fill="#277297" stroke="#277297"></path><path d="M267 960L330 910L218 879Z" fill="#0c2435" stroke="#0c2435"></path><path d="M228 144L193 140L236 185Z" fill="#297ea6" stroke="#297ea6"></path><path d="M60 152L0 213L48 243Z" fill="#15384f" stroke="#15384f"></path><path d="M48 243L0 213L0 274Z" fill="#205a7a" stroke="#205a7a"></path><path d="M447 197L349 147L331 163Z" fill="#277297" stroke="#277297"></path><path d="M331 163L305 136L253 202Z" fill="#19435d" stroke="#19435d"></path><path d="M228 144L190 87L193 140Z" fill="#246688" stroke="#246688"></path><path d="M336 139L305 136L331 163Z" fill="#15384f" stroke="#15384f"></path><path d="M136 960L204 919L158 863Z" fill="#15384f" stroke="#15384f"></path><path d="M335 53L336 139L349 147Z" fill="#112e42" stroke="#112e42"></path><path d="M349 147L336 139L331 163Z" fill="#1d4e6b" stroke="#1d4e6b"></path><path d="M52 935L92 889L80 868Z" fill="#1d4e6b" stroke="#1d4e6b"></path><path d="M80 868L92 889L158 863Z" fill="#19435d" stroke="#19435d"></path><path d="M434 922L440 879L362 881Z" fill="#112e42" stroke="#112e42"></path><path d="M499 862L540 806L464 804Z" fill="#277297" stroke="#277297"></path><path d="M60 152L48 243L94 214Z" fill="#00101c" stroke="#00101c"></path><path d="M0 747L0 855L62 764Z" fill="#112e42" stroke="#112e42"></path><path d="M440 879L499 862L464 804Z" fill="#19435d" stroke="#19435d"></path><path d="M540 312L540 218L485 232Z" fill="#1d4e6b" stroke="#1d4e6b"></path><path d="M485 232L493 170L447 197Z" fill="#1d4e6b" stroke="#1d4e6b"></path><path d="M447 197L447 94L349 147Z" fill="#1d4e6b" stroke="#1d4e6b"></path><path d="M101 120L94 214L147 207Z" fill="#297ea6" stroke="#297ea6"></path><path d="M540 218L493 170L485 232Z" fill="#205a7a" stroke="#205a7a"></path><path d="M206 960L267 960L204 919Z" fill="#15384f" stroke="#15384f"></path><path d="M204 919L267 960L218 879Z" fill="#112e42" stroke="#112e42"></path><path d="M371 960L434 922L362 881Z" fill="#246688" stroke="#246688"></path><path d="M440 879L434 922L499 862Z" fill="#1d4e6b" stroke="#1d4e6b"></path><path d="M206 960L204 919L194 960Z" fill="#297ea6" stroke="#297ea6"></path><path d="M193 140L101 120L147 207Z" fill="#205a7a" stroke="#205a7a"></path><path d="M156 95L101 120L193 140Z" fill="#112e42" stroke="#112e42"></path><path d="M371 960L362 881L330 910Z" fill="#205a7a" stroke="#205a7a"></path><path d="M194 960L204 919L136 960Z" fill="#0c2435" stroke="#0c2435"></path><path d="M136 960L158 863L92 889Z" fill="#1d4e6b" stroke="#1d4e6b"></path><path d="M335 53L238 85L305 136Z" fill="#112e42" stroke="#112e42"></path><path d="M305 136L238 85L228 144Z" fill="#00101c" stroke="#00101c"></path><path d="M335 53L305 136L336 139Z" fill="#205a7a" stroke="#205a7a"></path><path d="M190 87L156 95L193 140Z" fill="#1d4e6b" stroke="#1d4e6b"></path><path d="M238 85L190 87L228 144Z" fill="#297ea6" stroke="#297ea6"></path><path d="M267 960L371 960L330 910Z" fill="#1d4e6b" stroke="#1d4e6b"></path><path d="M52 935L136 960L92 889Z" fill="#1d4e6b" stroke="#1d4e6b"></path><path d="M0 855L0 900L80 868Z" fill="#277297" stroke="#277297"></path><path d="M0 900L52 935L80 868Z" fill="#297ea6" stroke="#297ea6"></path><path d="M499 862L540 892L540 806Z" fill="#277297" stroke="#277297"></path><path d="M434 922L540 892L499 862Z" fill="#15384f" stroke="#15384f"></path><path d="M449 960L540 892L434 922Z" fill="#19435d" stroke="#19435d"></path><path d="M190 87L151 74L156 95Z" fill="#0c2435" stroke="#0c2435"></path><path d="M156 95L151 74L101 120Z" fill="#1d4e6b" stroke="#1d4e6b"></path><path d="M101 120L69 57L60 152Z" fill="#277297" stroke="#277297"></path><path d="M196 0L151 74L190 87Z" fill="#1d4e6b" stroke="#1d4e6b"></path><path d="M371 960L435 960L434 922Z" fill="#205a7a" stroke="#205a7a"></path><path d="M508 104L447 94L493 170Z" fill="#246688" stroke="#246688"></path><path d="M493 170L447 94L447 197Z" fill="#205a7a" stroke="#205a7a"></path><path d="M238 85L196 0L190 87Z" fill="#277297" stroke="#277297"></path><path d="M540 218L540 149L493 170Z" fill="#297ea6" stroke="#297ea6"></path><path d="M435 960L449 960L434 922Z" fill="#277297" stroke="#277297"></path><path d="M421 56L335 53L349 147Z" fill="#0c2435" stroke="#0c2435"></path><path d="M540 149L540 134L493 170Z" fill="#1d4e6b" stroke="#1d4e6b"></path><path d="M0 900L23 960L52 935Z" fill="#15384f" stroke="#15384f"></path><path d="M52 935L23 960L136 960Z" fill="#19435d" stroke="#19435d"></path><path d="M540 134L508 104L493 170Z" fill="#205a7a" stroke="#205a7a"></path><path d="M447 94L421 56L349 147Z" fill="#277297" stroke="#277297"></path><path d="M475 72L421 56L447 94Z" fill="#112e42" stroke="#112e42"></path><path d="M0 900L0 960L23 960Z" fill="#00101c" stroke="#00101c"></path><path d="M120 0L69 57L151 74Z" fill="#15384f" stroke="#15384f"></path><path d="M151 74L69 57L101 120Z" fill="#112e42" stroke="#112e42"></path><path d="M60 152L0 84L0 213Z" fill="#246688" stroke="#246688"></path><path d="M428 0L475 72L519 0Z" fill="#205a7a" stroke="#205a7a"></path><path d="M508 104L475 72L447 94Z" fill="#081a28" stroke="#081a28"></path><path d="M69 57L0 84L60 152Z" fill="#112e42" stroke="#112e42"></path><path d="M305 0L335 22L397 0Z" fill="#19435d" stroke="#19435d"></path><path d="M397 0L335 22L335 53Z" fill="#297ea6" stroke="#297ea6"></path><path d="M335 53L255 0L238 85Z" fill="#15384f" stroke="#15384f"></path><path d="M449 960L540 960L540 892Z" fill="#297ea6" stroke="#297ea6"></path><path d="M305 0L255 0L335 53Z" fill="#081a28" stroke="#081a28"></path><path d="M397 0L335 53L421 56Z" fill="#081a28" stroke="#081a28"></path><path d="M335 22L305 0L335 53Z" fill="#00101c" stroke="#00101c"></path><path d="M255 0L196 0L238 85Z" fill="#19435d" stroke="#19435d"></path><path d="M69 57L0 32L0 84Z" fill="#15384f" stroke="#15384f"></path><path d="M196 0L120 0L151 74Z" fill="#246688" stroke="#246688"></path><path d="M428 0L397 0L421 56Z" fill="#00101c" stroke="#00101c"></path><path d="M120 0L86 0L69 57Z" fill="#112e42" stroke="#112e42"></path><path d="M540 26L475 72L508 104Z" fill="#19435d" stroke="#19435d"></path><path d="M475 72L428 0L421 56Z" fill="#1d4e6b" stroke="#1d4e6b"></path><path d="M86 0L0 32L69 57Z" fill="#246688" stroke="#246688"></path><path d="M540 134L540 26L508 104Z" fill="#0c2435" stroke="#0c2435"></path><path d="M86 0L0 0L0 32Z" fill="#0c2435" stroke="#0c2435"></path><path d="M540 26L519 0L475 72Z" fill="#081a28" stroke="#081a28"></path><path d="M540 26L540 0L519 0Z" fill="#277297" stroke="#277297"></path></g></svg>