<svg id="visual" viewBox="0 0 900 600" width="900" height="600" xmlns="http://www.w3.org/2000/svg" xmlns:xlink="http://www.w3.org/1999/xlink" version="1.1"><g stroke-width="1" stroke-linejoin="bevel"><path d="M402 307L338 273L333 366Z" fill="#112e42" stroke="#112e42"></path><path d="M333 366L391 416L402 307Z" fill="#297ea6" stroke="#297ea6"></path><path d="M338 273L237 366L333 366Z" fill="#112e42" stroke="#112e42"></path><path d="M295 536L405 493L391 416Z" fill="#205a7a" stroke="#205a7a"></path><path d="M402 307L361 189L338 273Z" fill="#277297" stroke="#277297"></path><path d="M338 273L239 233L237 366Z" fill="#1d4e6b" stroke="#1d4e6b"></path><path d="M361 189L239 233L338 273Z" fill="#19435d" stroke="#19435d"></path><path d="M361 189L338 162L239 233Z" fill="#081a28" stroke="#081a28"></path><path d="M239 233L191 315L237 366Z" fill="#277297" stroke="#277297"></path><path d="M525 272L493 230L402 307Z" fill="#15384f" stroke="#15384f"></path><path d="M402 307L493 230L361 189Z" fill="#205a7a" stroke="#205a7a"></path><path d="M361 189L401 111L338 162Z" fill="#246688" stroke="#246688"></path><path d="M391 416L509 404L402 307Z" fill="#15384f" stroke="#15384f"></path><path d="M509 404L525 272L402 307Z" fill="#277297" stroke="#277297"></path><path d="M295 536L391 416L333 366Z" fill="#277297" stroke="#277297"></path><path d="M391 416L405 493L509 404Z" fill="#00101c" stroke="#00101c"></path><path d="M138 400L222 460L237 366Z" fill="#297ea6" stroke="#297ea6"></path><path d="M237 366L222 460L333 366Z" fill="#00101c" stroke="#00101c"></path><path d="M493 230L401 111L361 189Z" fill="#1d4e6b" stroke="#1d4e6b"></path><path d="M338 162L283 88L239 233Z" fill="#15384f" stroke="#15384f"></path><path d="M222 460L295 536L333 366Z" fill="#0c2435" stroke="#0c2435"></path><path d="M405 493L499 496L509 404Z" fill="#277297" stroke="#277297"></path><path d="M616 270L589 200L525 272Z" fill="#0c2435" stroke="#0c2435"></path><path d="M382 600L499 496L405 493Z" fill="#19435d" stroke="#19435d"></path><path d="M100 285L138 400L191 315Z" fill="#246688" stroke="#246688"></path><path d="M191 315L138 400L237 366Z" fill="#1d4e6b" stroke="#1d4e6b"></path><path d="M230 600L277 600L295 536Z" fill="#00101c" stroke="#00101c"></path><path d="M589 200L500 129L493 230Z" fill="#0c2435" stroke="#0c2435"></path><path d="M493 230L500 129L401 111Z" fill="#00101c" stroke="#00101c"></path><path d="M385 0L283 88L401 111Z" fill="#0c2435" stroke="#0c2435"></path><path d="M401 111L283 88L338 162Z" fill="#112e42" stroke="#112e42"></path><path d="M127 199L100 285L191 315Z" fill="#0c2435" stroke="#0c2435"></path><path d="M127 199L191 315L239 233Z" fill="#205a7a" stroke="#205a7a"></path><path d="M192 92L127 199L239 233Z" fill="#081a28" stroke="#081a28"></path><path d="M525 272L589 200L493 230Z" fill="#246688" stroke="#246688"></path><path d="M616 270L525 272L607 414Z" fill="#19435d" stroke="#19435d"></path><path d="M607 414L525 272L509 404Z" fill="#1d4e6b" stroke="#1d4e6b"></path><path d="M569 520L607 414L509 404Z" fill="#205a7a" stroke="#205a7a"></path><path d="M283 88L192 92L239 233Z" fill="#1d4e6b" stroke="#1d4e6b"></path><path d="M295 536L382 600L405 493Z" fill="#205a7a" stroke="#205a7a"></path><path d="M499 496L569 520L509 404Z" fill="#297ea6" stroke="#297ea6"></path><path d="M230 600L295 536L222 460Z" fill="#246688" stroke="#246688"></path><path d="M295 536L277 600L382 600Z" fill="#112e42" stroke="#112e42"></path><path d="M531 600L569 520L499 496Z" fill="#15384f" stroke="#15384f"></path><path d="M138 400L133 522L222 460Z" fill="#081a28" stroke="#081a28"></path><path d="M0 489L133 522L138 400Z" fill="#277297" stroke="#277297"></path><path d="M133 522L230 600L222 460Z" fill="#277297" stroke="#277297"></path><path d="M505 0L401 111L500 129Z" fill="#277297" stroke="#277297"></path><path d="M505 0L385 0L401 111Z" fill="#0c2435" stroke="#0c2435"></path><path d="M283 88L213 0L192 92Z" fill="#246688" stroke="#246688"></path><path d="M385 0L307 0L283 88Z" fill="#19435d" stroke="#19435d"></path><path d="M382 600L531 600L499 496Z" fill="#1d4e6b" stroke="#1d4e6b"></path><path d="M697 233L622 126L589 200Z" fill="#1d4e6b" stroke="#1d4e6b"></path><path d="M589 200L622 126L500 129Z" fill="#00101c" stroke="#00101c"></path><path d="M607 414L678 402L616 270Z" fill="#112e42" stroke="#112e42"></path><path d="M616 270L697 233L589 200Z" fill="#112e42" stroke="#112e42"></path><path d="M716 504L678 402L607 414Z" fill="#15384f" stroke="#15384f"></path><path d="M716 504L607 414L569 520Z" fill="#277297" stroke="#277297"></path><path d="M0 221L0 305L100 285Z" fill="#19435d" stroke="#19435d"></path><path d="M192 92L82 124L127 199Z" fill="#112e42" stroke="#112e42"></path><path d="M106 0L82 124L192 92Z" fill="#0c2435" stroke="#0c2435"></path><path d="M678 402L690 289L616 270Z" fill="#205a7a" stroke="#205a7a"></path><path d="M307 0L213 0L283 88Z" fill="#246688" stroke="#246688"></path><path d="M0 221L100 285L127 199Z" fill="#246688" stroke="#246688"></path><path d="M100 285L0 415L138 400Z" fill="#081a28" stroke="#081a28"></path><path d="M818 310L697 233L690 289Z" fill="#1d4e6b" stroke="#1d4e6b"></path><path d="M690 289L697 233L616 270Z" fill="#297ea6" stroke="#297ea6"></path><path d="M602 0L505 0L500 129Z" fill="#277297" stroke="#277297"></path><path d="M531 600L572 600L569 520Z" fill="#277297" stroke="#277297"></path><path d="M0 600L125 600L133 522Z" fill="#246688" stroke="#246688"></path><path d="M133 522L125 600L230 600Z" fill="#0c2435" stroke="#0c2435"></path><path d="M0 305L0 415L100 285Z" fill="#15384f" stroke="#15384f"></path><path d="M82 124L0 221L127 199Z" fill="#00101c" stroke="#00101c"></path><path d="M0 415L0 489L138 400Z" fill="#297ea6" stroke="#297ea6"></path><path d="M697 233L692 122L622 126Z" fill="#19435d" stroke="#19435d"></path><path d="M622 126L602 0L500 129Z" fill="#0c2435" stroke="#0c2435"></path><path d="M213 0L106 0L192 92Z" fill="#081a28" stroke="#081a28"></path><path d="M82 124L0 96L0 221Z" fill="#00101c" stroke="#00101c"></path><path d="M692 122L602 0L622 126Z" fill="#277297" stroke="#277297"></path><path d="M572 600L716 504L569 520Z" fill="#00101c" stroke="#00101c"></path><path d="M678 402L780 420L690 289Z" fill="#297ea6" stroke="#297ea6"></path><path d="M697 233L811 198L692 122Z" fill="#112e42" stroke="#112e42"></path><path d="M106 0L0 96L82 124Z" fill="#0c2435" stroke="#0c2435"></path><path d="M716 504L780 420L678 402Z" fill="#15384f" stroke="#15384f"></path><path d="M0 489L0 600L133 522Z" fill="#297ea6" stroke="#297ea6"></path><path d="M770 600L777 478L716 504Z" fill="#081a28" stroke="#081a28"></path><path d="M716 504L777 478L780 420Z" fill="#246688" stroke="#246688"></path><path d="M572 600L723 600L716 504Z" fill="#0c2435" stroke="#0c2435"></path><path d="M900 295L818 310L900 421Z" fill="#297ea6" stroke="#297ea6"></path><path d="M780 420L818 310L690 289Z" fill="#0c2435" stroke="#0c2435"></path><path d="M818 310L811 198L697 233Z" fill="#0c2435" stroke="#0c2435"></path><path d="M692 122L716 0L602 0Z" fill="#0c2435" stroke="#0c2435"></path><path d="M106 0L0 0L0 96Z" fill="#297ea6" stroke="#297ea6"></path><path d="M831 90L716 0L692 122Z" fill="#00101c" stroke="#00101c"></path><path d="M723 600L770 600L716 504Z" fill="#081a28" stroke="#081a28"></path><path d="M900 421L818 310L780 420Z" fill="#15384f" stroke="#15384f"></path><path d="M811 198L831 90L692 122Z" fill="#246688" stroke="#246688"></path><path d="M900 164L831 90L811 198Z" fill="#297ea6" stroke="#297ea6"></path><path d="M900 421L780 420L777 478Z" fill="#0c2435" stroke="#0c2435"></path><path d="M818 310L900 295L811 198Z" fill="#277297" stroke="#277297"></path><path d="M900 0L803 0L831 90Z" fill="#1d4e6b" stroke="#1d4e6b"></path><path d="M831 90L803 0L716 0Z" fill="#19435d" stroke="#19435d"></path><path d="M900 514L900 421L777 478Z" fill="#081a28" stroke="#081a28"></path><path d="M900 295L900 164L811 198Z" fill="#15384f" stroke="#15384f"></path><path d="M770 600L900 514L777 478Z" fill="#277297" stroke="#277297"></path><path d="M900 164L900 81L831 90Z" fill="#246688" stroke="#246688"></path><path d="M770 600L900 600L900 514Z" fill="#297ea6" stroke="#297ea6"></path><path d="M900 81L900 0L831 90Z" fill="#15384f" stroke="#15384f"></path></g></svg>